<svg version="1.2" xmlns="http://www.w3.org/2000/svg" viewBox="0 0 200 220" width="200" height="220">
	<title>Proyecto nuevo</title>
	<style>
		.s0 { fill: #ffffff } 
		.s1 { fill: #004982 } 
	</style>
	<path id="Forma 1" class="s0" d="m9 124l181 4-161-95z"/>
	<path id="Forma 2" class="s0" d=""/>
	<path id="Forma 3" class="s0" d="m7 127l187 2-42-104z"/>
	<path id="Forma 4" class="s0" d="m70 45l52 12-30 38z"/>
	<path id="Forma 5" class="s0" d="m8 126l16 48 105-52z"/>
	<path id="Forma 6" class="s0" d="m25 92l52 25 116 9-27 63-143-13-18-57z"/>
	<path id="Forma 7" class="s0" d="m19 172l151 11-9 11-8 6-15 10-16 6-16 2-18-1-20-5-16-8-21-17z"/>
	<path id="Forma 8" class="s0" d="m18 169l13-2-23-44v12l1 11 3 10 5 10z"/>
	<path id="Forma 9" class="s0" d="m194 127l-1 14-6 19-5 12-8 11-7 2-6-40z"/>
	<path id="polygon67" class="s1" d="m68.4 205.5v-0.5h-2.6v0.5 1.3h2.6z"/>
	<path id="rect69" class="s1" d="m65.8 199.7h2.6v1.8h-2.6z"/>
	<path id="polygon71" class="s1" d="m77.6 190.4l1.1-0.6 1-4.7h-2.1-2.1l1.1 4.7z"/>
	<path id="rect73" class="s1" d="m86.8 210.8h4v1.7h-4z"/>
	<path id="rect75" class="s1" d="m86.8 205h4v1.8h-4z"/>
	<path id="rect77" class="s1" d="m86.8 199.7h4v1.8h-4z"/>
	<path id="polygon79" class="s1" d="m100 190.4l1-0.6 1.1-4.7h-2.1-2.1l1 4.7z"/>
	<path id="rect81" class="s1" d="m109.2 210.8h3.9v1.7h-3.9z"/>
	<path id="rect83" class="s1" d="m109.2 205h3.9v1.8h-3.9z"/>
	<path id="rect85" class="s1" d="m109.2 199.7h3.9v1.8h-3.9z"/>
	<path id="polygon87" class="s1" d="m122.3 190.4l1.1-0.6 1-4.7h-2.1-2.1l1.1 4.7z"/>
	<path id="polygon89" class="s1" d="m134.2 205.5v-0.5h-2.7v0.5 1.3h2.7z"/>
	<path id="rect91" class="s1" d="m131.5 199.7h2.7v1.8h-2.7z"/>
	<path id="rect93" class="s1" d="m156.5 164.2h5.7v0.9h-5.7z"/>
	<path id="rect95" class="s1" d="m156.5 170h5.7v0.9h-5.7z"/>
	<path id="rect97" class="s1" d="m156.5 158.4h5.7v0.9h-5.7z"/>
	<path id="rect99" class="s1" d="m156.5 152.7h5.7v0.9h-5.7z"/>
	<path id="rect101" class="s1" d="m156.5 146.9h5.7v0.9h-5.7z"/>
	<path id="rect103" class="s1" d="m156.5 141.1h5.7v0.9h-5.7z"/>
	<path id="rect105" class="s1" d="m145.6 146.9h8.7v24h-8.7z"/>
	<path id="rect107" class="s1" d="m137.7 164.2h5.7v0.9h-5.7z"/>
	<path id="rect109" class="s1" d="m137.7 170h5.7v0.9h-5.7z"/>
	<path id="rect111" class="s1" d="m137.7 158.4h5.7v0.9h-5.7z"/>
	<path id="rect113" class="s1" d="m137.7 152.7h5.7v0.9h-5.7z"/>
	<path id="rect115" class="s1" d="m137.7 146.9h5.7v0.9h-5.7z"/>
	<path id="rect117" class="s1" d="m137.7 141.1h5.7v0.9h-5.7z"/>
	<path id="rect119" class="s1" d="m115.3 174h14v2.6h-14z"/>
	<path id="rect121" class="s1" d="m118 149.6h8.7v23h-8.7z"/>
	<path id="polygon123" class="s1" d="m107 174h-7-7v2.6h14z"/>
	<path id="polygon125" class="s1" d="m95.6 149.6v23h4.4 4.4v-23h-4.4z"/>
	<path id="rect127" class="s1" d="m70.6 174h14.1v2.6h-14.1z"/>
	<path id="rect129" class="s1" d="m73.3 149.6h8.7v23h-8.7z"/>
	<path id="rect131" class="s1" d="m56.6 164.2h5.7v0.9h-5.7z"/>
	<path id="rect133" class="s1" d="m56.6 170h5.7v0.9h-5.7z"/>
	<path id="rect135" class="s1" d="m56.6 158.4h5.7v0.9h-5.7z"/>
	<path id="rect137" class="s1" d="m56.6 152.7h5.7v0.9h-5.7z"/>
	<path id="rect139" class="s1" d="m56.6 146.9h5.7v0.9h-5.7z"/>
	<path id="rect141" class="s1" d="m56.6 141.1h5.7v0.9h-5.7z"/>
	<path id="rect143" class="s1" d="m45.7 146.9h8.7v24h-8.7z"/>
	<path id="rect145" class="s1" d="m37.8 158.4h5.7v0.9h-5.7z"/>
	<path id="rect147" class="s1" d="m37.8 164.2h5.7v0.9h-5.7z"/>
	<path id="rect149" class="s1" d="m37.8 152.7h5.7v0.9h-5.7z"/>
	<path id="rect151" class="s1" d="m37.8 146.9h5.7v0.9h-5.7z"/>
	<path id="rect153" class="s1" d="m37.8 141.1h5.7v0.9h-5.7z"/>
	<path id="rect155" class="s1" d="m37.8 170h5.7v0.9h-5.7z"/>
	<path id="path157" class="s1" d="m77.4 98.1c2.7 0 4.8-2.2 4.8-4.9 0-2.6-2.1-4.8-4.8-4.8-2.6 0-4.8 2.2-4.8 4.8 0 2.7 2.2 4.9 4.8 4.9z"/>
	<path id="path159" class="s1" d="m100 98.1c2.7 0 4.8-2.2 4.8-4.9 0-2.6-2.1-4.8-4.8-4.8-2.7 0-4.8 2.2-4.8 4.8 0 2.7 2.1 4.9 4.8 4.9z"/>
	<path id="path161" class="s1" d="m122.6 98.1c2.6 0 4.8-2.2 4.8-4.9 0-2.6-2.2-4.8-4.8-4.8-2.7 0-4.9 2.2-4.9 4.8 0 2.7 2.2 4.9 4.9 4.9z"/>
	<path id="path163" class="s1" d="m65.4 117.6h-0.3c-3.6-4.3-9-7.1-15.1-7.1-6 0-11.4 2.8-15 7.1h-0.3v1.8h30.7z"/>
	<path id="polygon165" class="s1" d="m65.8 104.3v2.7h34.2 34.2v-2.7h-34.2z"/>
	<path id="polygon167" class="s1" d="m129.3 112.3h4.9v-2.2h-68.4v2.2h4.8v2.2h29.4 29.3z"/>
	<path id="rect169" class="s1" d="m70.6 117.6h58.7v1.8h-58.7z"/>
	<path id="polygon171" class="s1" d="m37.8 120.7v2.3 1.7 1.4h28v3.1h68.4v-3.1h28v-1.4-1.7-2.3h-24.5v2.3h-75.4v-2.3z"/>
	<path id="path173" class="s1" d="m37.8 134.1h7v3.9h1c0.9 1.4 2.5 2.3 4.2 2.3 1.8 0 3.4-0.9 4.3-2.3h1v-3.9h7v-3.6h-24.5c0 0 0 3.6 0 3.6z"/>
	<path id="path175" class="s1" d="m137.7 134.1h7v3.9h1c0.9 1.4 2.5 2.3 4.2 2.3 1.8 0 3.3-0.9 4.3-2.3h1v-3.9h7v-3.6h-24.5z"/>
	<path id="path177" fill-rule="evenodd" class="s1" d="m65.8 133.2h34.2c-2.8 0-5.2 1.6-6.3 4h-12.9q0.4 0.4 0.6 0.8h3.3v4.9h-3.5c-0.8 1.1-2.1 1.8-3.6 1.8-1.4 0-2.7-0.7-3.5-1.8h-3.5v-4.9h3.3q0.2-0.4 0.6-0.8h-8.7zm8.7 7.1c0 1.7 1.4 3.2 3.1 3.2 1.8 0 3.2-1.5 3.2-3.2 0-1.8-1.4-3.3-3.2-3.3-1.7 0-3.1 1.5-3.1 3.3z"/>
	<path id="path179" fill-rule="evenodd" class="s1" d="m100 133.2h34.2v4h-8.7q0.3 0.4 0.6 0.8h3.2v4.9h-3.5c-0.8 1.1-2 1.8-3.5 1.8-1.4 0-2.7-0.7-3.5-1.8h-3.5v-4.9h3.2q0.3-0.4 0.7-0.8h-12.9c-1.1-2.4-3.5-4-6.3-4zm19.2 7.1c0 1.7 1.4 3.2 3.1 3.2 1.8 0 3.2-1.5 3.2-3.2 0-1.8-1.4-3.3-3.2-3.3-1.7 0-3.1 1.5-3.1 3.3z"/>
	<path id="path181" class="s1" d="m91.2 138v4.9h2.3q-0.5-1.2-0.5-2.6 0-1.2 0.3-2.3z"/>
	<path id="path183" class="s1" d="m107 140.3q0 1.4-0.5 2.6h2.3v-4.9h-2.2q0.4 1.1 0.4 2.3z"/>
	<path id="path185" class="s1" d="m104.4 140.3c0-1.3-0.5-2.4-1.3-3.2l-2.6 3.4q0 0.1-0.1 0.1 0 0 0 0.1-0.1 0-0.1 0c-0.2 0.2-0.5 0.1-0.7 0q-0.1-0.1-0.1-0.2l-1.4-2.2 1.9 1.3 3.1-2.5c-0.8-0.8-1.9-1.3-3.1-1.3-2.4 0-4.4 2-4.4 4.5 0 2.4 2 4.4 4.4 4.4 2.4 0 4.4-2 4.4-4.4z"/>
	<path id="polygon187" class="s1" d="m84.7 145.6h-14.1v2.2h14.1v-1.3z"/>
	<path id="path189" class="s1" d="m100 147.4c-1.8 0-3.4-0.7-4.6-1.8h-2.4v2.2h7 7v-2.2h-2.4c-1.2 1.1-2.8 1.8-4.6 1.8z"/>
	<path id="rect191" class="s1" d="m115.3 145.6h14v2.2h-14z"/>
	<path id="path193" class="s1" d="m75.5 188l-0.4-1.8c-5.3 1.2-9.3 6-9.3 11.7h1.3 0.5 0.8 0.5 0.4c0-4 2.8-7.4 6.6-8.2l-0.2-0.9z"/>
	<path id="path195" class="s1" d="m97.6 187l-0.2-0.8c-4 0.9-7.2 3.9-8.6 7.8-1.3-3.9-4.6-6.9-8.6-7.8l-0.2 0.8-0.6 2.7c3.8 0.8 6.6 4.2 6.6 8.2h0.4 0.4 0.9 0.5 1.3 0.4 0.9 0.4 0.5c0-4 2.8-7.4 6.5-8.2l-0.6-2.7z"/>
	<path id="path197" class="s1" d="m119.8 186.2c-4 0.9-7.3 3.9-8.6 7.8-1.4-3.9-4.6-6.9-8.7-7.8l-0.1 0.8-0.6 2.7c3.7 0.8 6.5 4.2 6.5 8.2h0.5 0.4 0.9 0.4 1.3 0.5 0.8 0.5 0.4c0-4 2.8-7.4 6.6-8.2l-0.6-2.7z"/>
	<path id="path199" class="s1" d="m124.9 186.2l-0.2 0.8-0.6 2.7c3.8 0.8 6.6 4.2 6.6 8.2h0.4 0.4 0.9 0.4 1.4c0-5.7-4-10.5-9.3-11.7z"/>
	<path id="path201" class="s1" d="m86.4 208.8c-0.1 0-0.2 0.1-0.2 0.2 0 0.1 0.1 0.2 0.2 0.2 0.1 0 0.2-0.1 0.2-0.2 0-0.1-0.1-0.2-0.2-0.2z"/>
	<path id="path203" class="s1" d="m87.7 209.2c0-0.1-0.1-0.2-0.2-0.2-0.1 0-0.2 0.1-0.2 0.2 0 0.1 0.1 0.2 0.2 0.2 0.1 0 0.2-0.1 0.2-0.2z"/>
	<path id="path205" class="s1" d="m89 208.3c0-0.1-0.1-0.2-0.2-0.2-0.1 0-0.2 0.1-0.2 0.2 0 0.2 0.1 0.3 0.2 0.3 0.1 0 0.2-0.1 0.2-0.3z"/>
	<path id="rect209" class="s1" d="m84.7 68.8h3v3.2h-3z"/>
	<path id="rect211" class="s1" d="m88.6 68.8h3.1v3.2h-3.1z"/>
	<path id="rect213" class="s1" d="m96.5 68.8h3.1v3.2h-3.1z"/>
	<path id="rect215" class="s1" d="m100.4 68.8h3.1v3.2h-3.1z"/>
	<path id="rect217" class="s1" d="m92.5 68.8h3.1v3.2h-3.1z"/>
	<path id="rect219" class="s1" d="m80.7 68.8h3.1v3.2h-3.1z"/>
	<path id="rect221" class="s1" d="m68.9 68.8h3.1v3.2h-3.1z"/>
	<path id="rect223" class="s1" d="m72.8 68.8h3.1v3.2h-3.1z"/>
	<path id="rect225" class="s1" d="m76.8 68.8h3.1v3.2h-3.1z"/>
	<path id="rect227" class="s1" d="m128 68.8h3.1v3.2h-3.1z"/>
	<path id="rect229" class="s1" d="m124.1 68.8h3.1v3.2h-3.1z"/>
	<path id="rect231" class="s1" d="m120.1 68.8h3.1v3.2h-3.1z"/>
	<path id="path233" fill-rule="evenodd" class="s1" d="m196 122.4v1.4c-0.7 53.1-43.4 95.8-96 95.8-51.9 0-94.1-41.7-95.9-93.8 0 0-0.1-1.3-0.1-2.2v-122.6h192v120.7c0 0.7 0 0 0 0.7zm-130.2-46h68.4v-2.7l-2.2-2.2v-7.1h-0.9v3.6h-62.2v-3.6h-0.9v7.1l-2.2 2.2zm125.6 52.4h-26.6v-8h3.5v-4h-2.3q-1.7-2-3.8-3.5v-6.3h-7c-1.6 0.9-3.4 1.5-5.3 1.5-1.9 0-3.7-0.6-5.2-1.5h-9.7v-2.6h6.6v-1.4h16.7v1.4h6.5v-4.9h-2.6c-0.3-11.3-12.5-20.4-27.4-20.4q-0.1 0-0.3 0-0.2 0-0.3 0h-68.4q-0.2 0-0.3 0-0.2 0-0.3 0c-15 0-27.1 9.1-27.4 20.4h-2.6v4.9h6.5v-1.4h16.7v1.4h6.5v2.6h-9.6c-1.5 0.9-3.3 1.5-5.3 1.5-1.9 0-3.7-0.6-5.2-1.5h-7v6.3q-2.1 1.5-3.8 3.5h-2.4v4h3.6v8h-26.6q0.1 1.8 0.3 3.5h26.3v1.8h-26.1q0.2 1.6 0.4 3.1h25.7v35.5h-1.4v-25.3h-22.1q0.6 2.2 1.3 4.4h5.1v12.3q1.6 3.3 3.5 6.5v-18.8h7.9v20.9h-6.6q2.2 3.4 4.6 6.6h7.7v-2.6h28.9v1.7h71.8v-1.7h28.9v2.6h7.7q2.4-3.2 4.6-6.6h-6.6v-20.9h7.9v18.8q1.9-3.2 3.5-6.5v-12.3h5q0.7-2.2 1.4-4.4h-22.2v25.3h-1.3v-35.5h25.6q0.3-1.5 0.5-3.1h-26.1v-1.8h26.3q0.2-1.7 0.3-3.5zm-26.6 51.9h-30.6v1.3h-68.4v-1.3h-30.6v7.1h28.9v2.6h-26.6c2.8 2.7 5.9 5.2 9.1 7.6h17.5v2.6h-13.5q0 0 0 0h-0.2c6.3 4.1 13.1 7.5 20.2 9.9v-12.5c0-4 3.2-7.1 7-7.1 3.9 0 7.1 3.1 7.1 7.1v16.1q4.1 0.7 8.3 1v-17.1c0-4 3.1-7.1 7-7.1 3.9 0 7 3.1 7 7.1v17.1q4.2-0.3 8.3-1v-16.1c0-4 3.2-7.1 7-7.1 3.9 0 7 3.1 7 7.1v12.5c7.2-2.4 14-5.8 20.2-9.9h-13.6v-2.6h17.5c3.2-2.4 6.3-4.9 9.1-7.6h-26.6v-2.6h28.9c0 0 0-7.1 0-7.1zm24.6-37.7h-23.3v3.1h22.5q0.4-1.6 0.8-3.1zm-178 3.1h22.4v-3.1h-23.2q0.4 1.5 0.8 3.1z"/>
	<path id="rect235" class="s1" d="m116.2 68.8h3.1v3.2h-3.1z"/>
	<path id="rect237" class="s1" d="m104.4 68.8h3v3.2h-3z"/>
	<path id="rect239" class="s1" d="m108.3 68.8h3.1v3.2h-3.1z"/>
	<path id="rect241" class="s1" d="m112.2 68.8h3.1v3.2h-3.1z"/>
	<path id="path243" class="s1" d="m165.3 118.5v-0.9h-0.3c-3.6-4.3-9-7.1-15.1-7.1-6 0-11.4 2.8-15 7.1h-0.3v1.8h30.7c0 0 0-0.9 0-0.9z"/>
</svg>