<?xml version="1.0" standalone="no"?>
<!DOCTYPE svg PUBLIC "-//W3C//DTD SVG 20010904//EN"
 "http://www.w3.org/TR/2001/REC-SVG-20010904/DTD/svg10.dtd">
<svg version="1.0" xmlns="http://www.w3.org/2000/svg"
 width="256.000000pt" height="256.000000pt" viewBox="0 0 256.000000 256.000000"
 preserveAspectRatio="xMidYMid meet">

<g transform="translate(0.000000,256.000000) scale(0.100000,-0.100000)"
fill="#ff00d0" stroke="none">
<path d="M2073 2485 c-132 -37 -222 -139 -245 -277 -11 -62 -7 -87 26 -193 6
-16 -17 -44 -113 -139 l-120 -119 -68 36 c-137 72 -300 88 -440 43 -18 -6 -26
0 -48 39 l-27 45 31 46 c116 176 59 395 -131 496 -37 20 -58 23 -143 23 -85 0
-106 -3 -143 -23 -67 -36 -129 -98 -159 -161 -24 -48 -28 -68 -28 -141 0 -102
28 -173 95 -240 64 -64 138 -94 231 -95 l77 0 24 -44 25 -44 -57 -57 c-65 -67
-121 -166 -145 -260 -13 -49 -16 -91 -12 -173 5 -106 4 -107 -19 -113 -17 -4
-34 3 -63 25 -72 57 -126 76 -221 76 -66 0 -96 -5 -132 -22 -63 -29 -134 -96
-166 -158 -24 -44 -27 -61 -27 -150 0 -89 3 -106 27 -150 32 -62 103 -129 166
-158 37 -17 66 -22 137 -22 84 0 94 2 153 34 106 57 167 153 179 276 5 58 9
66 30 71 18 5 28 0 45 -22 45 -61 129 -132 196 -167 98 -52 185 -70 302 -64
108 6 185 29 273 83 l57 36 106 -98 c85 -79 104 -102 99 -118 -23 -81 -27
-129 -16 -183 28 -139 117 -235 253 -269 77 -20 146 -12 224 25 218 105 257
387 76 552 -96 88 -233 111 -350 59 l-45 -20 -84 77 c-47 43 -96 87 -109 98
l-23 20 33 68 c79 161 75 356 -11 519 l-36 69 119 120 c95 96 123 119 139 113
106 -33 131 -37 193 -26 143 24 243 115 278 254 18 68 14 121 -13 203 -22 69
-119 165 -188 189 -72 24 -151 28 -212 11z m-1202 -208 c90 -60 88 -181 -4
-237 -62 -38 -152 -17 -193 46 -23 35 -23 113 0 148 42 65 134 85 197 43z
m1358 5 c124 -66 72 -262 -69 -262 -106 0 -173 114 -122 209 22 41 74 71 122
71 19 0 51 -8 69 -18z m-792 -652 c161 -74 255 -249 223 -412 -31 -164 -150
-284 -313 -318 -160 -33 -344 63 -417 216 -70 150 -40 315 80 434 118 119 279
149 427 80z m-961 -605 c87 -57 83 -194 -8 -241 -96 -49 -208 16 -208 122 0
109 126 178 216 119z m1753 -423 c93 -50 93 -194 0 -244 -95 -51 -209 16 -209
122 0 76 64 140 140 140 19 0 51 -8 69 -18z"/>
</g>
</svg>
